<?xml version="1.0" encoding="UTF-8"?>
<svg id="Layer_1" data-name="Layer 1" xmlns="http://www.w3.org/2000/svg" viewBox="0 0 913.7 954.8">
  <defs>
    <style>
      .cls-1 {
        fill: #ffc845;
      }

      .cls-2 {
        fill: #fff;
      }

      .cls-3 {
        fill: #86457a;
      }

      .cls-4 {
        fill: #b762a6;
      }
    </style>
  </defs>
  <g>
    <rect class="cls-4" width="913.7" height="691.78" rx="36.06" ry="36.06"/>
    <rect class="cls-2" x="88.27" y="154.1" width="710.96" height="61.64" rx="17.61" ry="17.61"/>
    <rect class="cls-2" x="101.29" y="322.59" width="342.47" height="61.64" rx="17.61" ry="17.61"/>
  </g>
  <path class="cls-3" d="M589.58,699.5c-3.8.8-4.99,4.67-6.53,8.34-15.41,42.22-56.74,156.3-71.93,198.4-1.92,5.86-3.44,10.13,5.75,5.85,12.48-5.86,31.77-16.51,45.34-23.5,8.08-3.75,19.84-12.02,26.6-6.25,4.36,3.94,6.58,10.3,9.04,15.77,5.13,12.37,12.15,29.92,16.92,41.46,1.6,3.85,3.29,7.92,5.09,11.38,1.78,3.39,3.8,6.12,5.94,1.07,14.12-37.13,58.4-161.01,72.57-199.57,1.27-3.81,2.94-7.63,2.06-10.99-.65-2.06-2.6-3.61-6.23-5.36-21.88-8.96-55.46-20.46-78.09-28.97-7.21-2.52-21.37-8.52-26.47-7.65h-.07Z"/>
  <path class="cls-3" d="M804.04,699.5c3.8.8,4.99,4.67,6.53,8.34,15.41,42.22,56.74,156.3,71.93,198.4,1.92,5.86,3.44,10.13-5.75,5.85-12.48-5.86-31.77-16.51-45.34-23.5-8.08-3.75-19.84-12.02-26.6-6.25-4.36,3.94-6.58,10.3-9.04,15.77-5.13,12.37-12.15,29.92-16.92,41.46-1.6,3.85-3.29,7.92-5.09,11.38-1.78,3.39-3.8,6.12-5.94,1.07-14.12-37.13-58.4-161.01-72.57-199.57-1.27-3.81-2.94-7.63-2.06-10.99.65-2.06,2.6-3.61,6.23-5.36,21.88-8.96,55.46-20.46,78.09-28.97,7.21-2.52,21.37-8.52,26.47-7.65h.07Z"/>
  <path class="cls-1" d="M683.7,387.01l-93.84,34.15c-10.16,3.7-18.7,10.86-24.1,20.23l-49.93,86.48c-5.41,9.37-7.34,20.34-5.46,30.99l17.34,98.34c1.88,10.65,7.45,20.3,15.73,27.25l76.5,64.19c8.28,6.95,18.75,10.76,29.57,10.76h99.86c10.81,0,21.28-3.81,29.57-10.76l76.5-64.19c8.28-6.95,13.85-16.6,15.73-27.25l17.34-98.34c1.88-10.65-.06-21.62-5.46-30.99l-49.93-86.48c-5.41-9.37-13.94-16.53-24.1-20.23l-93.84-34.15c-10.16-3.7-21.3-3.7-31.47,0Z"/>
</svg>