<?xml version="1.0" encoding="UTF-8"?>
<svg id="Layer_1" data-name="Layer 1" xmlns="http://www.w3.org/2000/svg" viewBox="0 0 759.76 952.77">
  <defs>
    <style>
      .cls-1 {
        fill: #5d92cd;
      }

      .cls-2 {
        fill: #9bb0db;
      }

      .cls-3 {
        fill: #fff;
        stroke: #fff;
        stroke-miterlimit: 10;
        stroke-width: 21px;
      }

      .cls-4 {
        fill: #2a3286;
      }
    </style>
  </defs>
  <rect class="cls-2" y="17.48" width="525.59" height="879.29" rx="41.79" ry="41.79"/>
  <rect class="cls-1" x="157.62" y="36.74" width="525.59" height="879.29" rx="41.79" ry="41.79" transform="translate(106.06 -75.77) rotate(11.77)"/>
  <g>
    <circle class="cls-4" cx="620.91" cy="824.19" r="118.51"/>
    <path class="cls-3" d="M688.38,824.19c0,2.15-.85,4.21-2.37,5.73s-3.58,2.37-5.73,2.37h-51.28v51.28c0,2.15-.85,4.21-2.37,5.73-1.52,1.52-3.58,2.37-5.73,2.37s-4.21-.85-5.73-2.37c-1.52-1.52-2.37-3.58-2.37-5.73v-51.28h-51.28c-2.15,0-4.21-.85-5.73-2.37s-2.37-3.58-2.37-5.73.85-4.21,2.37-5.73c1.52-1.52,3.58-2.37,5.73-2.37h51.28v-51.28c0-2.15.85-4.21,2.37-5.73,1.52-1.52,3.58-2.37,5.73-2.37s4.21.85,5.73,2.37c1.52,1.52,2.37,3.58,2.37,5.73v51.28h51.28c2.15,0,4.21.85,5.73,2.37,1.52,1.52,2.37,3.58,2.37,5.73Z"/>
  </g>
</svg>