<?xml version="1.0" encoding="UTF-8"?>
<svg id="Layer_1" data-name="Layer 1" xmlns="http://www.w3.org/2000/svg" viewBox="0 0 768.13 869.16">
  <defs>
    <style>
      .cls-1 {
        fill: #2c2d84;
      }

      .cls-2 {
        fill: #60cae1;
      }

      .cls-3 {
        fill: #53a0d8;
      }
    </style>
  </defs>
  <path class="cls-2" d="M750.56,131.85l-175.34-56.62,45.9,412.27,8.21,2.65c13.42,4.33,27.89-2.78,32.33-15.89l105.17-310.83c4.44-13.11-2.85-27.25-16.27-31.58Z"/>
  <path class="cls-1" d="M587.33,777L506.85,37.06c-2.48-22.81-22.98-39.29-45.79-36.81L37.06,46.36C14.25,48.84-2.23,69.35.25,92.16l80.48,739.94c2.48,22.81,22.98,39.29,45.79,36.81l424-46.11c22.81-2.48,39.29-22.98,36.81-45.79ZM134.56,812.94L56.69,96.97l396.08-43.08,77.87,715.97-396.08,43.08Z"/>
  <path class="cls-3" d="M622.51,50.58h-96.92l80.12,736.69c.15,1.42.23,2.83.25,4.23h16.55c22.94,0,41.55-18.6,41.55-41.55V92.13c0-22.94-18.6-41.55-41.55-41.55Z"/>
</svg>