<?xml version="1.0" encoding="UTF-8"?>
<svg id="Layer_1" data-name="Layer 1" xmlns="http://www.w3.org/2000/svg" viewBox="0 0 873.93 968.32">
  <defs>
    <style>
      .cls-1 {
        fill: #b1daf5;
      }

      .cls-2 {
        fill: #fff;
      }

      .cls-3 {
        fill: #cfecf7;
      }
    </style>
  </defs>
  <path class="cls-3" d="M850.57,174.58l-233.34-80.58,61.08,586.8,10.93,3.78c17.86,6.17,37.12-3.96,43.02-22.62l139.94-442.41c5.9-18.66-3.79-38.78-21.65-44.95h.02Z"/>
  <path class="cls-2" d="M517.76.28L41.62,51.67C16,54.44-2.51,77.28.28,102.7l90.42,824.34c2.79,25.41,25.82,43.78,51.44,41.01l476.15-51.4c25.62-2.77,44.13-25.61,41.34-51.03L569.2,41.29c-2.79-25.41-25.82-43.78-51.43-41.01Z"/>
  <path class="cls-1" d="M699.09,56.38h-108.84l89.98,820.72c.17,1.58.26,3.15.28,4.71h18.59c25.76,0,46.66-20.72,46.66-46.29V102.67c0-25.56-20.89-46.29-46.66-46.29Z"/>
</svg>