<?xml version="1.0" encoding="UTF-8"?>
<svg id="Layer_1" data-name="Layer 1" xmlns="http://www.w3.org/2000/svg" viewBox="0 0 846.36 951.08">
  <defs>
    <style>
      .cls-1 {
        fill: #cb7bb3;
      }

      .cls-2 {
        fill: #d32b38;
      }

      .cls-3 {
        fill: #5d66af;
      }

      .cls-4 {
        fill: #262262;
      }

      .cls-5 {
        fill: #9684be;
      }
    </style>
  </defs>
  <rect class="cls-4" x="54.74" y="790.26" width="791.62" height="160.82" rx="67.3" ry="67.3"/>
  <rect class="cls-3" y="629.44" width="791.62" height="160.82" rx="67.3" ry="67.3"/>
  <rect class="cls-5" x="43.81" y="468.62" width="791.62" height="160.82" rx="67.3" ry="67.3"/>
  <rect class="cls-1" y="307.79" width="791.62" height="160.82" rx="67.3" ry="67.3"/>
  <path class="cls-2" d="M624.81,135.92c-9.81-34.76-32.75-66.14-71.05-69.98-6.75-.81-13.95-.76-20.53.2-7.31,1.02-13.96,3.26-20.88,5.1-14.11,4.09-15.59-6.22-12.75-17.07,5.55-24.23,21.71-27.77,26.32-43.1,2.11-13-11.62-13.59-19.42-6.78-11.23,9.18-14.31,26.69-18.64,40.15-1.32,4.67-2.6,9.44-3.78,14.17-1.25,4.94-2.54,8.93-4.73,11.21-4.47,5.12-14.05,2.57-20.42.61-7.52-2.18-14.93-4.32-23.27-4.86-15.22-.99-30.48,2.07-43.44,9.36-21.11,11.8-34.11,34.07-41.4,56.63-19.74,60.13-4.09,132.81,43.85,174.49,13.24,12.42,30.9,22.07,49.58,19.69,9.34-.96,18.39-4.99,27.62-7.42,12.26-3.48,24.96-2.28,36.87,1.86,18.55,6.83,34.83,8.94,52.9-1,17.99-10.57,30.4-24.03,43.17-42.19,27.54-40.57,33.48-93.93,20.06-140.87l-.06-.19Z"/>
</svg>