<?xml version="1.0" encoding="UTF-8"?>
<svg id="Layer_2" data-name="Layer 2" xmlns="http://www.w3.org/2000/svg" viewBox="0 0 727.25 615.5">
  <defs>
    <style>
      .cls-1 {
        fill: #343330;
      }
    </style>
  </defs>
  <path class="cls-1" d="M686.78,132.07v105.66c0,7.01-2.78,13.73-7.74,18.68-4.95,4.95-11.67,7.74-18.68,7.74s-13.73-2.78-18.68-7.74-7.74-11.67-7.74-18.68v-105.66h-281.75c-11.42-.03-22.54-3.73-31.7-10.57l-91.59-68.68H52.83v449.05h264.15c7.01,0,13.73,2.78,18.68,7.74s7.74,11.67,7.74,18.68-2.78,13.73-7.74,18.68c-4.95,4.95-11.67,7.74-18.68,7.74H52.83c-14.01,0-27.45-5.57-37.36-15.47-9.91-9.91-15.47-23.35-15.47-37.36V52.83c0-14.01,5.57-27.45,15.47-37.36C25.38,5.57,38.82,0,52.83,0h176.09c11.42.03,22.54,3.73,31.7,10.57l91.59,68.68h281.75c14.01,0,27.45,5.57,37.36,15.47,9.91,9.91,15.47,23.35,15.47,37.36Z"/>
  <path class="cls-1" d="M632.72,581.8c-8.57-31.82-28.74-59.28-56.52-77,14.79-14.77,24.86-33.6,28.95-54.1s2-41.75-5.99-61.06c-7.99-19.31-21.54-35.82-38.91-47.44-17.38-11.61-37.81-17.81-58.71-17.81s-41.34,6.2-58.71,17.81c-17.38,11.62-30.92,28.12-38.91,47.44-7.99,19.31-10.08,40.56-5.99,61.06,4.09,20.5,14.16,39.33,28.95,54.1-27.78,17.72-47.93,45.18-56.49,77-1.8,6.77-.85,13.98,2.67,20.04,3.51,6.06,9.28,10.48,16.05,12.28,2.22.59,4.51.89,6.8.89,5.82,0,11.49-1.93,16.1-5.48s7.93-8.53,9.42-14.16c9.35-35.1,42.3-59.6,80.14-59.6s70.79,24.5,80.14,59.6c.83,3.41,2.34,6.62,4.43,9.44,2.09,2.82,4.73,5.2,7.74,6.99,3.02,1.79,6.37,2.96,9.85,3.44,3.48.48,7.02.26,10.41-.64,3.39-.9,6.57-2.47,9.35-4.62,2.78-2.14,5.11-4.82,6.84-7.88,1.73-3.05,2.84-6.42,3.25-9.91.41-3.49.13-7.02-.84-10.4ZM553.36,440.42c-2.04,10.25-7.07,19.66-14.46,27.05s-16.8,12.42-27.05,14.46c-10.25,2.04-20.87.99-30.52-3.01-9.65-4-17.9-10.77-23.71-19.46-5.81-8.69-8.9-18.9-8.9-29.35,0-14.01,5.57-27.45,15.47-37.36,9.91-9.91,23.35-15.47,37.36-15.47,10.45,0,20.66,3.1,29.35,8.9,8.69,5.8,15.46,14.06,19.46,23.71,4,9.65,5.04,20.28,3.01,30.52Z"/>
  <path class="cls-1" d="M726.23,580.88c-8.57-31.82-28.74-59.28-56.52-77,14.79-14.77,24.86-33.6,28.95-54.1s2-41.75-5.99-61.06c-7.99-19.31-21.54-35.82-38.91-47.44-17.38-11.61-37.81-17.81-58.71-17.81s-41.34,6.2-58.71,17.81c-10.2,6.82-19.07,15.33-26.28,25.1,18.79,2.6,34.83,13.77,44.06,29.43,1.12-1.38,2.32-2.71,3.59-3.98,9.91-9.91,23.35-15.47,37.36-15.47,10.45,0,20.66,3.1,29.35,8.9,8.69,5.8,15.46,14.06,19.46,23.71,4,9.65,5.04,20.28,3.01,30.52-2.04,10.25-7.07,19.66-14.46,27.05s-16.8,12.42-27.05,14.46c-10.25,2.04-20.87.99-30.52-3.01-8.98-3.72-16.74-9.84-22.46-17.67-9.99,15.05-26.49,25.39-45.49,27.02,3.91,5.92,8.41,11.47,13.48,16.53-9.04,5.77-17.26,12.57-24.55,20.22,1.89-.07,3.8-.12,5.72-.12,24.79,0,47.15,6.32,62.97,16.45,9.51-3.61,19.83-5.58,30.54-5.58,37.84,0,70.79,24.5,80.14,59.6.83,3.41,2.34,6.62,4.43,9.44,2.09,2.82,4.73,5.2,7.74,6.99,3.02,1.79,6.37,2.96,9.85,3.44,3.48.48,7.02.26,10.41-.64,3.39-.9,6.57-2.47,9.35-4.62,2.78-2.14,5.11-4.82,6.84-7.88,1.73-3.05,2.84-6.42,3.25-9.91.41-3.49.13-7.02-.84-10.4Z"/>
</svg>