<?xml version="1.0" encoding="UTF-8"?>
<svg id="Layer_1" data-name="Layer 1" xmlns="http://www.w3.org/2000/svg" viewBox="0 0 856.86 980.17">
  <defs>
    <style>
      .cls-1 {
        fill: #4d53a3;
      }

      .cls-2 {
        fill: #b762a7;
      }

      .cls-3 {
        fill: #fff;
      }
    </style>
  </defs>
  <rect class="cls-2" width="811.06" height="980.17" rx="73.46" ry="73.46"/>
  <rect class="cls-3" x="59.77" y="147.12" width="398.49" height="73.88" rx="20" ry="20"/>
  <path class="cls-1" d="M740.81,20.93c-6.08-.24-9.4,16.67-11.63,21.76-9.42,28.53-25.68,50.02-50.13,67.05-9.1,6.24-18.14,10.81-26.19,14.32-20.44,8.91-34.61,10.96-26.85,16.24,7.88,4.34,18.88,7.08,27.41,11.03,38.8,15.98,67.42,49.34,79.01,90.95,2.32,6.05,4.16,11.39,7.91,11.8,3.88-.4,5.67-5.77,8.05-11.83,12.86-46.44,46.13-80.68,90.97-95.62,5.05-1.87,12.47-4.33,15.88-6.65,6.99-5.75-9.89-7.67-30.21-17.28-8.47-3.85-17.85-8.87-27.13-15.69-22.85-16.78-37.56-37.75-46.22-64.5-2.61-6.33-5.07-19.5-10.76-21.56l-.13-.02Z"/>
  <rect class="cls-3" x="159.53" y="430.15" width="621.31" height="77.59" rx="20" ry="20"/>
  <rect class="cls-3" x="159.53" y="568.09" width="621.31" height="77.59" rx="20" ry="20"/>
  <rect class="cls-3" x="30.22" y="429.29" width="77.59" height="77.59" rx="28.7" ry="28.7"/>
  <rect class="cls-3" x="30.22" y="568.09" width="77.59" height="77.59" rx="28" ry="28"/>
  <rect class="cls-3" x="159.53" y="706.02" width="310.65" height="77.59" rx="20" ry="20"/>
  <rect class="cls-3" x="30.22" y="706.88" width="77.59" height="77.59" rx="28" ry="28"/>
</svg>